<?xml version="1.0" encoding="UTF-8" standalone="no"?>
<!-- Created with Inkscape (http://www.inkscape.org/) -->

<svg
   width="83.283997mm"
   height="8.8175459mm"
   viewBox="0 0 83.283997 8.8175459"
   version="1.1"
   id="svg1"
   xmlns:xlink="http://www.w3.org/1999/xlink"
   xmlns="http://www.w3.org/2000/svg"
   xmlns:svg="http://www.w3.org/2000/svg">
  <defs
     id="defs1">
    <linearGradient
       id="linearGradient11">
      <stop
         style="stop-color:#2b0079;stop-opacity:1;"
         offset="0.18904366"
         id="stop11" />
      <stop
         style="stop-color:#5837a4;stop-opacity:1;"
         offset="1"
         id="stop12" />
    </linearGradient>
    <linearGradient
       xlink:href="#linearGradient11"
       id="linearGradient12"
       x1="57.271328"
       y1="37.171906"
       x2="57.271328"
       y2="44.750023"
       gradientUnits="userSpaceOnUse" />
  </defs>
  <g
     id="layer1"
     transform="translate(-15.113105,-37.21099)">
    <path
       style="fill:url(#linearGradient12);fill-opacity:1;stroke:#000000;stroke-width:0;stroke-dasharray:none;stroke-opacity:0"
       d="m 98.394144,46.028533 -83.277738,-0.189724 -0.0033,-3.458359 3.862661,-1.381887 1.642927,-1.232406 2.281402,-1.703448 2.889778,-0.851723 2.616006,0.94298 3.771919,3.072289 1.703448,0.790884 3.072289,-0.577953 3.224382,-0.577956 3.133127,-1.125492 3.576436,-0.493185 3.602376,0.766952 1.794703,1.064657 2.981034,1.308002 1.658417,0.109938 2.734476,-1.532671 1.847265,-1.361461 1.894235,-1.832504 2.975815,-0.550593 2.529969,0.64185 3.169659,1.824751 2.994005,1.393144 2.771159,0.368455 2.450048,-1.223234 3.950479,-0.222103 4.436807,-0.751296 2.31182,0.896007 2.009796,0.97862 1.948589,0.447632 3.448969,0.792574 z"
       id="path4" />
  </g>
</svg>
